<svg xmlns="http://www.w3.org/2000/svg" xmlns:xlink="http://www.w3.org/1999/xlink" xmlns:sketch="http://www.bohemiancoding.com/sketch/ns" width="16px" height="16px" viewBox="0 0 16 16" version="1.1">
    <!-- Generator: Sketch 3.3 (11970) - http://www.bohemiancoding.com/sketch -->
    <title>epic</title>
    <desc>Created with Sketch.</desc>
    <defs/>
    <g id="Page-1" stroke="none" stroke-width="1" fill="none" fill-rule="evenodd" sketch:type="MSPage">
        <g id="epic" sketch:type="MSArtboardGroup">
            <g id="Epic" sketch:type="MSLayerGroup" transform="translate(1.000000, 1.000000)">
                <path d="M13,14 L1,14 C0.448,14 0,13.552 0,13 L0,1 C0,0.448 0.448,0 1,0 L13,0 C13.552,0 14,0.448 14,1 L14,13 C14,13.552 13.552,14 13,14" id="Fill-1" fill="#654982" sketch:type="MSShapeGroup"/>
                <path d="M7.5,0 L3,7 L6,7 L1.5,14 L2,14 L11,5 L8,5 C8,5 10.3333333,1.66666667 11.5,0 L7.5,0 Z" id="Fill-2" fill="#FFFFFF" sketch:type="MSShapeGroup"/>
            </g>
        </g>
    </g>
</svg>